Coordinates
version=1
nRows=19
nColumns=24
inDegrees=yes

Units are S.I. units (second, meters, Newtons, ...)
Angles are in degrees.

endheader
time	pelvis_tilt	pelvis_list	pelvis_rotation	pelvis_tx	pelvis_ty	pelvis_tz	hip_flexion_r	hip_adduction_r	hip_rotation_r	knee_angle_r	ankle_angle_r	subtalar_angle_r	mtp_angle_r	hip_flexion_l	hip_adduction_l	hip_rotation_l	knee_angle_l	ankle_angle_l	subtalar_angle_l	mtp_angle_l	lumbar_extension	lumbar_bending	lumbar_rotation
      0.96883333	      2.09572614	     -5.50373778	      2.00812039	     -0.29494279	      1.00598188	      0.30288986	      3.35152595	     11.86289494	      1.00678774	    -11.58701178	      4.07250464	    -18.16109854	     -2.55028531	     18.15564049	     -6.11342548	      1.22093388	    -72.97585527	     -8.17527676	    -10.50294393	      2.72967734	     -1.35276963	      8.89860250	      2.55800908
      0.97300000	      2.07493181	     -5.41004111	      1.84221430	     -0.29023537	      1.00627108	      0.30323850	      2.90204757	     11.77242474	      1.11929821	    -11.30797771	      4.16597778	    -18.01172200	     -2.54517422	     18.80448794	     -6.01386590	      1.14205393	    -72.88409763	     -7.61132189	    -10.73926035	      2.71939222	     -1.39029457	      8.79123694	      2.64175744
      0.97716667	      2.13989598	     -5.31264204	      1.63908442	     -0.28554663	      1.00664826	      0.30364383	      2.36680878	     11.67341563	      1.22839721	    -11.04352197	      4.26949534	    -17.64658353	     -2.53140332	     19.33381829	     -5.94225500	      1.00692773	    -72.74181477	     -7.00933489	    -10.83366992	      2.65235832	     -1.56121234	      8.66554025	      3.02028897
      0.98133333	      2.11174494	     -5.21010360	      1.46801028	     -0.28086523	      1.00688265	      0.30396965	      1.93549982	     11.56406381	      1.33721123	    -10.77864193	      4.36312432	    -17.48462480	     -2.52418816	     19.96493802	     -5.82979121	      0.92959685	    -72.55829059	     -6.45352336	    -11.01867650	      2.64040622	     -1.59637194	      8.55294644	      3.09940147
      0.98550000	      2.15104407	     -5.11375390	      1.25941771	     -0.27620414	      1.00716563	      0.30435429	      1.44902421	     11.45376314	      1.41351447	    -10.54670354	      4.48129798	    -17.04853394	     -2.50047862	     20.50060246	     -5.75521687	      0.80549483	    -72.33492861	     -5.82900832	    -10.99037294	      2.56635444	     -1.74750153	      8.42891729	      3.47750892
      0.98966667	      2.14889570	     -5.02215504	      1.06611271	     -0.27154696	      1.00736311	      0.30469574	      1.01013053	     11.34460394	      1.48663338	    -10.31454737	      4.59028891	    -16.70056749	     -2.47354349	     21.07619319	     -5.67169425	      0.70653286	    -72.07239501	     -5.23956941	    -11.01463909	      2.49367387	     -1.83216652	      8.31900003	      3.69598498
      0.99383333	      2.15699122	     -4.93562076	      0.86763704	     -0.26688767	      1.00754753	      0.30504423	      0.55893393	     11.23960817	      1.57505187	    -10.07878451	      4.68605023	    -16.39204896	     -2.44669835	     21.62528898	     -5.60000882	      0.60194819	    -71.76791457	     -4.64149933	    -10.99910281	      2.43700613	     -1.92918211	      8.20494803	      3.88027658
      0.99800000	      2.13498809	     -4.85280106	      0.68491504	     -0.26223492	      1.00765857	      0.30535582	      0.14746158	     11.13348649	      1.63391257	     -9.84938922	      4.80088374	    -16.05108629	     -2.41053969	     22.20072683	     -5.52050855	      0.52726284	    -71.42423864	     -4.06088793	    -10.91751571	      2.36749211	     -1.98492433	      8.11481890	      4.10832862
      1.00216667	      2.14197041	     -4.77573156	      0.49588977	     -0.25759157	      1.00778661	      0.30567355	     -0.29666844	     11.03258793	      1.71501429	     -9.61488360	      4.90053458	    -15.72981495	     -2.37248502	     22.72840949	     -5.45388667	      0.44302163	    -71.03659480	     -3.48746452	    -10.82294729	      2.30410787	     -2.08169548	      8.01849851	      4.30072989
      1.00633333	      2.12197208	     -4.68789421	      0.28138463	     -0.25294543	      1.00785948	      0.30600869	     -0.70231869	     10.91858955	      1.83144016	     -9.40268863	      4.97674106	    -15.48516582	     -2.34786567	     23.26269507	     -5.38473093	      0.32911341	    -70.60031276	     -2.92903874	    -10.74629442	      2.27501029	     -2.14232089	      7.91552293	      4.42331133
      1.01050000	      2.12547543	     -4.61787604	      0.10465007	     -0.24831442	      1.00792139	      0.30629689	     -1.13951666	     10.82124830	      1.91619989	     -9.16499865	      5.08036799	    -15.14919929	     -2.30867900	     23.77206959	     -5.31825447	      0.27321834	    -70.13703169	     -2.37607802	    -10.53055987	      2.22647437	     -2.25245765	      7.82504829	      4.65428654
      1.01466667	      2.09841982	     -4.54728534	     -0.08255897	     -0.24364916	      1.00790769	      0.30658265	     -1.53401736	     10.71892387	      1.97483405	     -8.94998609	      5.19306567	    -14.81363823	     -2.25784967	     24.29552785	     -5.25785485	      0.19838190	    -69.63129422	     -1.85468246	    -10.33776105	      2.16113664	     -2.29349501	      7.74275194	      4.87606986
      1.01883333	      2.07881685	     -4.47356521	     -0.29286163	     -0.23902123	      1.00788805	      0.30690370	     -1.93279989	     10.61578319	      2.10883000	     -8.74123041	      5.27142194	    -14.57706705	     -2.22719060	     24.79198305	     -5.20478522	      0.10077124	    -69.08064343	     -1.36345558	    -10.19380294	      2.13073782	     -2.36717535	      7.63215437	      4.98841200
      1.02300000	      2.05219517	     -4.41765753	     -0.47796236	     -0.23438201	      1.00781237	      0.30716026	     -2.32270848	     10.52755394	      2.21506629	     -8.53036687	      5.36565288	    -14.30598995	     -2.18709921	     25.28935379	     -5.15585697	      0.04526928	    -68.49926656	     -0.88031018	     -9.93590776	      2.09017069	     -2.42248275	      7.58489425	      5.17828987
      1.02716667	      2.02910231	     -4.34745880	     -0.66721620	     -0.22972780	      1.00773559	      0.30743443	     -2.71630869	     10.42493177	      2.33325565	     -8.32082477	      5.45966396	    -14.05841711	     -2.14826294	     25.76013126	     -5.09631541	     -0.02309255	    -67.86789237	     -0.44447296	     -9.71561336	      2.05103182	     -2.48259183	      7.49473799	      5.34715334
      1.03133333	      1.99597577	     -4.31454370	     -0.83397940	     -0.22508011	      1.00757001	      0.30767370	     -3.09692275	     10.36185940	      2.42914875	     -8.10946785	      5.57206403	    -13.80294680	     -2.09324914	     26.24570321	     -5.07072994	     -0.05813353	    -67.22602069	     -0.02464297	     -9.44945580	      1.99054818	     -2.53275264	      7.44679562	      5.56564842
      1.03550000	      1.95771075	     -4.24577520	     -1.03324121	     -0.22043232	      1.00742080	      0.30793832	     -3.46339844	     10.25866920	      2.58308546	     -7.91999823	      5.65692919	    -13.61615549	     -2.05960996	     26.69865204	     -5.01633440	     -0.13299363	    -66.51388034	      0.34412169	     -9.24499603	      1.95831439	     -2.57716213	      7.36291360	      5.67983265
      1.03966667	      1.92924615	     -4.18729618	     -1.21332187	     -0.21577627	      1.00723721	      0.30818141	     -3.84240564	     10.16657281	      2.72345898	     -7.72260010	      5.75561490	    -13.43111352	     -2.02649935	     27.13132345	     -4.96908522	     -0.18959177	    -65.77293112	      0.70151352	     -8.99474193	      1.92855542	     -2.63063804	      7.28894717	      5.82888030
      1.04383333	      1.90149789	     -4.15393122	     -1.37077847	     -0.21111325	      1.00699966	      0.30839247	     -4.22305197	     10.10203154	      2.84585762	     -7.52060446	      5.86950627	    -13.24440623	     -1.97603912	     27.55827648	     -4.94012204	     -0.21462694	    -65.01128543	      1.03946299	     -8.71695728	      1.87488656	     -2.68296843	      7.24410997	      6.04957652
